# Blender v2.82 (sub 7) OBJ File: 'spase_ships.blend'
# www.blender.org
mtllib ast2.mtl
o asteroid.003_Icosphere.002
v 0.415069 -1.636674 0.352811
v 1.498979 -0.277302 0.523035
v -3.627050 -0.320710 -0.220570
v -0.397447 -1.298455 -1.609850
v -4.456997 -0.171745 0.228093
v 1.386711 0.355202 -0.567134
v -0.519655 0.351483 -1.218841
v -0.104143 -2.541475 0.984933
v 2.399644 -0.726249 -0.269423
v -0.752919 -1.778332 0.132834
v -1.643245 -1.386775 0.714505
v 0.331333 -1.216161 -0.536391
v -1.212955 -2.721092 -1.673587
v 2.120901 -0.059488 -0.130988
v -0.468900 -2.846257 1.638022
v -2.199469 -0.209913 0.877762
v -1.781520 -1.499508 -2.230384
v 1.399038 0.032637 -0.857276
v -1.623780 -0.537513 -2.758753
v 0.655739 0.386491 0.671576
v 0.648135 0.820692 0.040150
v -3.147624 0.430640 0.158950
vt 0.082351 0.471322
vt 0.229717 0.556073
vt 0.033366 0.546090
vt 0.567055 0.394368
vt 0.451731 0.430058
vt 0.458047 0.274447
vt 0.619780 0.315773
vt 0.785778 0.459233
vt 0.317482 0.939425
vt 0.367208 0.570812
vt 0.417679 0.921247
vt 0.645339 0.201753
vt 0.409848 0.165721
vt 0.500917 0.044336
vt 0.836976 0.269990
vt 0.893894 0.458954
vt 0.832771 0.582310
vt 0.823507 0.479818
vt 0.391256 0.009539
vt 0.326327 0.218518
vt 0.267605 0.079711
vt 0.633817 0.537455
vt 0.686667 0.459250
vt 0.703797 0.603611
vt 0.791057 0.569094
vt 0.900544 0.931360
vt 0.775955 0.760184
vt 0.703720 0.596020
vt 0.566204 0.863569
vt 0.401120 0.750661
vt 0.710159 0.947058
vt 0.130331 0.295175
vt 0.039469 0.329451
vt 0.080249 0.092013
vt 0.008077 0.490891
vt 0.727974 0.015342
vt 0.388509 0.694129
vt 0.386884 0.515917
vt 0.323948 0.740317
vt 0.296653 0.902049
vt 0.124923 0.568593
vt 0.966120 0.458652
vt 0.969020 0.757858
vt 0.895274 0.651311
vt 0.962197 0.959817
vt 0.147145 0.927668
vt 0.067227 0.804073
vt 0.013316 0.978430
vt 0.386716 0.458074
vt 0.440973 0.268395
vt 0.579324 0.528958
vn 0.4497 -0.4548 0.7687
vn 0.2165 -0.6396 -0.7376
vn 0.1886 -0.8808 -0.4343
vn 0.2603 -0.8631 -0.4327
vn -0.3299 -0.8900 -0.3148
vn 0.4250 -0.2041 -0.8819
vn 0.4141 -0.0449 -0.9091
vn 0.6726 0.4092 -0.6166
vn -0.2189 0.5670 0.7941
vn -0.3056 0.5774 -0.7571
vn 0.2016 0.7787 -0.5941
vn 0.5092 0.8597 -0.0397
vn 0.1594 0.8675 -0.4711
vn -0.1787 0.9021 -0.3927
vn -0.5821 0.6307 -0.5133
vn 0.0154 0.9995 -0.0281
vn -0.0900 0.6817 0.7261
vn -0.6880 0.5941 0.4168
vn 0.4884 0.7218 0.4905
vn 0.6339 0.5305 -0.5628
vn 0.3186 0.6406 -0.6986
vn 0.5313 -0.4731 -0.7028
vn -0.7773 -0.2001 -0.5964
vn 0.0101 0.2832 0.9590
vn 0.5268 0.5185 0.6736
vn 0.4466 -0.1000 -0.8892
vn -0.7568 -0.5279 -0.3854
vn -0.2713 -0.2569 0.9276
vn -0.8252 -0.4393 0.3551
vn 0.3027 0.1748 0.9369
vn 0.6930 0.1430 0.7066
vn 0.2405 -0.9666 -0.0891
vn 0.7664 -0.4174 -0.4883
vn 0.5670 -0.7806 0.2630
vn -0.4397 -0.7454 0.5010
vn -0.4434 -0.8930 -0.0775
vn -0.5396 -0.7884 -0.2952
vn -0.4281 -0.7035 -0.5674
vn 0.8179 -0.5371 0.2062
vn 0.7770 -0.5932 -0.2108
usemtl asteroid
s off
f 2/1/1 1/2/1 9/3/1
f 1/4/2 8/5/2 10/6/2
f 1/4/3 10/6/3 12/7/3
f 1/4/4 12/7/4 9/8/4
f 3/9/5 11/10/5 5/11/5
f 4/12/6 13/13/6 17/14/6
f 4/12/7 17/14/7 18/15/7
f 9/16/8 18/17/8 14/18/8
f 5/19/9 16/20/9 22/21/9
f 3/22/10 5/23/10 22/24/10
f 6/25/11 19/26/11 7/27/11
f 14/18/12 6/25/12 21/28/12
f 21/28/13 6/25/13 7/27/13
f 7/29/14 19/30/14 22/24/14
f 19/30/15 3/22/15 22/24/15
f 22/24/16 20/31/16 7/29/16
f 22/21/17 16/20/17 20/32/17
f 20/32/18 21/33/18 7/34/18
f 20/32/19 14/35/19 21/33/19
f 14/18/20 18/17/20 6/25/20
f 18/17/21 19/26/21 6/25/21
f 18/15/22 17/14/22 19/36/22
f 17/37/23 3/22/23 19/30/23
f 15/38/24 20/32/24 16/20/24
f 2/1/25 14/35/25 20/32/25
f 9/8/26 4/12/26 18/15/26
f 17/39/27 13/40/27 3/41/27
f 5/42/28 11/43/28 16/44/28
f 11/43/29 15/45/29 16/44/29
f 15/38/30 2/1/30 20/32/30
f 2/1/31 9/3/31 14/35/31
f 12/7/32 4/12/32 9/8/32
f 12/7/33 13/13/33 4/12/33
f 12/7/34 10/6/34 13/13/34
f 10/46/35 3/41/35 13/40/35
f 10/46/36 11/47/36 3/41/36
f 10/46/37 8/48/37 11/47/37
f 8/5/38 15/49/38 11/50/38
f 8/5/39 2/51/39 15/49/39
f 8/5/40 1/4/40 2/51/40
