# Blender v2.82 (sub 7) OBJ File: 'spase_ships.blend'
# www.blender.org
mtllib ast4.mtl
o asteroid.002_Icosphere.001
v -0.460690 -0.415147 1.581422
v -0.006979 -0.527443 -0.892790
v 0.917988 -0.394755 -0.283889
v 0.116765 -0.317836 1.844533
v -0.881622 0.151070 0.871124
v -0.460440 0.629559 -0.684410
v 0.504482 0.278684 -0.879632
v 0.836239 0.913907 0.206423
v 0.000591 1.282536 0.373669
v -0.115227 -1.063492 0.506005
v 0.419159 -0.990071 0.076824
v -0.862667 -0.601700 0.488548
v -0.348909 -0.956338 -0.232205
v 0.828858 -0.109581 1.166081
v -0.908543 -0.322661 -0.354946
v -0.328887 -0.031182 -0.985405
v 0.025373 0.715910 1.302507
v -0.586975 0.908334 -0.146740
v 0.543750 0.939750 -0.496469
vt 0.739572 0.234789
vt 0.627084 0.078730
vt 0.583187 0.183043
vt 0.454545 0.000000
vt 0.409090 0.078731
vt 0.500000 0.078731
vt 0.409205 0.157461
vt 0.251302 0.194570
vt 0.360873 0.236191
vt 0.478492 0.273443
vt 0.140089 0.157461
vt 0.112995 0.276668
vt 0.847638 0.228249
vt 0.772726 0.393651
vt 1.000000 0.314921
vt 0.887583 0.352173
vt 0.923272 0.447817
vt 0.319990 0.314921
vt 0.409090 0.393651
vt 0.606339 0.366924
vt 0.519390 0.360065
vt 0.545454 0.472382
vt 0.318182 0.393651
vt 0.363636 0.472382
vt 0.208512 0.361157
vt 0.167636 0.447817
vt 0.666387 0.366924
vt 0.727272 0.472382
vt 0.928531 0.191133
vt 0.019440 0.191133
vt 0.279688 0.078730
vt 0.136363 0.078731
vt 0.068839 0.038227
vt 0.840251 0.038227
vt 0.772726 0.078731
vn 0.8025 -0.5741 0.1623
vn 0.0164 -0.9887 -0.1487
vn -0.5280 -0.4740 -0.7046
vn 0.5509 -0.3371 -0.7634
vn -0.9982 -0.0451 0.0394
vn 0.5567 0.4238 0.7144
vn -0.6154 0.6655 0.4224
vn 0.0072 0.5011 -0.8653
vn 0.3796 0.9168 -0.1242
vn -0.1630 0.8790 -0.4480
vn -0.1739 0.8569 -0.4852
vn -0.6857 0.6649 0.2961
vn 0.4338 0.7743 0.4608
vn 0.6358 0.5255 0.5653
vn 0.9080 0.1956 -0.3706
vn 0.8928 0.1850 -0.4106
vn -0.0361 0.4083 -0.9121
vn -0.8859 0.2923 -0.3601
vn -0.9609 0.2647 -0.0812
vn -0.5904 0.4232 0.6872
vn -0.4355 0.3875 0.8125
vn 0.1557 -0.0827 -0.9843
vn -0.7601 0.1380 -0.6350
vn -0.9054 -0.2103 0.3689
vn 0.9977 0.0425 0.0530
vn 0.4561 -0.7085 -0.5385
vn 0.1553 -0.8633 -0.4802
vn -0.5115 -0.5753 -0.6383
vn -0.7191 -0.6705 -0.1827
vn -0.5258 -0.8495 0.0432
vn -0.5031 -0.8021 0.3219
vn -0.0801 -0.8648 0.4956
vn 0.4216 -0.8213 0.3844
vn 0.5711 -0.7301 0.3753
usemtl asteroid
s off
f 14/1/1 11/2/1 3/3/1
f 10/4/2 13/5/2 11/6/2
f 2/7/3 15/8/3 16/9/3
f 3/3/4 2/7/4 7/10/4
f 12/11/5 5/12/5 15/8/5
f 4/13/6 14/1/6 17/14/6
f 5/15/7 17/16/7 9/17/7
f 7/10/8 6/18/8 19/19/8
f 8/20/9 19/21/9 9/22/9
f 19/19/10 18/23/10 9/24/10
f 19/19/11 6/18/11 18/23/11
f 18/25/12 5/12/12 9/26/12
f 17/14/13 8/27/13 9/28/13
f 17/14/14 14/1/14 8/27/14
f 3/3/15 19/21/15 8/27/15
f 3/3/16 7/10/16 19/21/16
f 16/9/17 6/18/17 7/10/17
f 15/8/18 18/25/18 6/18/18
f 15/8/19 5/12/19 18/25/19
f 1/29/20 17/16/20 5/15/20
f 1/29/21 4/13/21 17/16/21
f 7/10/22 2/7/22 16/9/22
f 16/9/23 15/8/23 6/18/23
f 5/12/24 12/11/24 1/30/24
f 14/1/25 3/3/25 8/27/25
f 11/6/26 2/7/26 3/3/26
f 11/6/27 13/5/27 2/7/27
f 13/31/28 15/8/28 2/7/28
f 13/31/29 12/11/29 15/8/29
f 13/32/30 10/33/30 12/11/30
f 10/33/31 1/30/31 12/11/31
f 10/34/32 4/13/32 1/29/32
f 10/34/33 11/35/33 4/13/33
f 11/35/34 14/1/34 4/13/34
